<svg width="647" height="107" viewBox="0 0 647 107" fill="none" xmlns="http://www.w3.org/2000/svg">
<path d="M163.553 52.896C159.776 48.224 152.519 45.441 145.561 45.441C131.545 45.441 120.014 55.182 120.014 70.69C120.014 86.594 131.743 95.939 145.859 95.939C152.917 95.939 159.478 93.553 163.454 89.278L155.998 81.724C153.712 84.507 149.636 85.998 145.958 85.998C136.913 85.998 132.439 78.145 132.439 70.69C132.439 63.234 136.813 55.381 145.561 55.381C149.438 55.381 153.513 57.369 155.402 60.053L163.553 52.896Z" fill="black"/>
<path d="M170.122 94.547H182.051V69C182.051 65.521 184.139 56.176 194.874 56.176C195.968 56.176 196.962 56.276 198.552 56.673V45.739C197.757 45.54 196.564 45.441 195.67 45.441C189.407 45.441 184.337 49.317 181.753 54.785H181.554V46.832H170.122V94.547Z" fill="black"/>
<path d="M212.517 65.918C213.014 59.258 218.68 54.387 225.738 54.387C233.492 54.387 236.971 59.755 236.971 65.918H212.517ZM248.9 71.286C248.9 54.089 239.158 45.441 225.838 45.441C211.424 45.441 200.589 55.58 200.589 70.988C200.589 86.495 211.523 95.939 226.235 95.939C235.281 95.939 242.041 92.758 246.713 86.396L238.76 80.034C236.076 83.811 232.1 86.197 226.136 86.197C219.177 86.197 213.014 81.227 212.517 74.467H248.8C248.9 73.374 248.9 72.379 248.9 71.286Z" fill="black"/>
<path d="M306.538 19.396H294.609V52.896H294.311C291.826 49.814 287.054 45.441 278.306 45.441C264.688 45.441 255.145 56.375 255.145 70.491C255.145 84.408 264.092 95.939 278.605 95.939C285.265 95.939 291.726 92.857 295.007 87.39H295.205V94.547H306.538V19.396ZM267.272 70.491C267.272 63.035 271.746 55.182 280.99 55.182C289.738 55.182 295.007 63.234 295.007 70.69C295.007 78.145 289.738 85.998 280.99 85.998C271.746 85.998 267.272 77.946 267.272 70.491Z" fill="black"/>
<path d="M318.804 94.547H330.733V46.832H318.804V94.547ZM317.114 30.629C317.114 34.407 320.295 37.786 324.669 37.786C329.043 37.786 332.423 34.705 332.423 30.629C332.423 26.554 329.043 23.472 324.669 23.472C320.295 23.472 317.114 26.852 317.114 30.629Z" fill="black"/>
<path d="M347.907 56.375V78.642C347.907 87.787 350.79 95.541 363.414 95.541C366.098 95.541 369.279 95.044 371.367 94.249L370.969 84.905C369.578 85.6 367.49 85.899 365.9 85.899C360.631 85.899 359.637 82.817 359.637 78.543V56.375H371.566V46.832H359.637V33.015H347.907V46.832H339.557V56.375H347.907Z" fill="black"/>
<path d="M380.397 94.547H392.326V70.093H392.624L411.511 94.547H427.316L405.348 68.403L426.024 46.832H410.716L392.624 66.912H392.326V19.396H380.397V94.547Z" fill="black"/>
<path d="M462 94.547H473.134V65.521C473.134 55.978 468.959 45.441 451.861 45.441C444.604 45.441 437.05 48.025 431.682 52.995L437.845 60.252C440.926 57.17 445.797 54.785 450.867 54.785C456.831 54.785 461.802 57.667 461.802 63.532V64.725C446.891 64.725 428.998 66.713 428.998 80.928C428.998 92.062 439.237 95.74 446.891 95.74C453.65 95.74 459.316 92.658 461.702 88.483H462V94.547ZM461.802 74.467C461.802 82.022 457.428 86.694 449.276 86.694C445.201 86.694 440.926 85.302 440.926 80.73C440.926 73.672 451.563 72.777 459.118 72.777H461.802V74.467Z" fill="black"/>
<path d="M483.394 94.547H495.323V69C495.323 65.521 497.41 56.176 508.146 56.176C509.24 56.176 510.234 56.276 511.824 56.673V45.739C511.029 45.54 509.836 45.441 508.941 45.441C502.679 45.441 497.609 49.317 495.025 54.785H494.826V46.832H483.394V94.547Z" fill="black"/>
<path d="M577.775 45.441C570.618 45.441 565.25 48.721 562.069 54.487C559.385 49.119 554.514 45.441 547.158 45.441C539.504 45.441 534.434 49.814 532.347 54.487H532.148V46.832H520.816V94.547H532.744V68.304C532.744 61.942 536.025 55.381 543.182 55.381C549.246 55.381 552.029 59.854 552.029 65.719V94.547H563.958V68.503C563.958 62.34 567.039 55.381 574.494 55.381C582.149 55.381 583.441 62.439 583.441 68.105V94.547H595.37V64.725C595.37 54.984 590.201 45.441 577.775 45.441Z" fill="black"/>
<path d="M635.237 94.547H646.371V65.521C646.371 55.978 642.196 45.441 625.098 45.441C617.841 45.441 610.287 48.025 604.919 52.995L611.082 60.252C614.163 57.17 619.034 54.785 624.104 54.785C630.068 54.785 635.039 57.667 635.039 63.532V64.725C620.128 64.725 602.235 66.713 602.235 80.928C602.235 92.062 612.474 95.74 620.128 95.74C626.887 95.74 632.553 92.658 634.939 88.483H635.237V94.547ZM635.039 74.467C635.039 82.022 630.665 86.694 622.513 86.694C618.438 86.694 614.163 85.302 614.163 80.73C614.163 73.672 624.8 72.777 632.355 72.777H635.039V74.467Z" fill="black"/>
<path d="M53.4 106.8C82.892 106.8 106.8 82.892 106.8 53.4C106.8 23.908 82.892 0 53.4 0C23.908 0 0 23.908 0 53.4C0 82.892 23.908 106.8 53.4 106.8Z" fill="#008600"/>
<path d="M26.4685 58.753C26.4685 49.565 30.8939 44.845 38.0167 44.845C43.3272 44.845 46.6146 46.91 47.7947 47.5C48.6798 46.615 49.2699 45.14 49.2699 43.665C49.2699 41.01 46.3196 38.354 37.7217 38.354C27.6486 38.354 19.0928 45.435 19.0928 58.753C19.0928 72.072 26.8057 79.152 36.8366 79.152C43.0322 79.152 47.7948 77.087 49.2699 76.497V69.122C47.7948 70.302 42.7793 72.662 38.0167 72.662C31.5261 72.662 26.4685 67.941 26.4685 58.753ZM75.5695 58.458C79.9949 53.148 84.1674 46.91 87.1177 38.944L80.6271 36.584C76.4968 47.837 70.259 55.508 62.8833 61.746V22.971H55.8027V78.309H62.8833V70.007C65.5386 67.941 67.8988 65.876 70.5962 63.516L77.0868 74.769C78.5619 77.424 80.9222 78.9 84.1675 78.9C85.9376 78.9 87.1178 78.31 87.4128 78.014L75.5695 58.5V58.458Z" fill="white"/>
</svg>
